<svg xmlns="http://www.w3.org/2000/svg" style="display: none;">
  <symbol id="human" viewBox="0 0 256 256">
    <path d="M179.041,256.543C193.646,269.867 59.32,270.094 74.044,255.914C80.878,249.332 86.674,239.541 89.015,224.98C84.142,221.583 79.543,217.498 75.29,212.784C65.138,201.518 57.329,186.953 52.589,170.761C51.987,171.512 51.387,172.282 50.803,173.069C49.193,175.218 47.752,177.517 46.673,179.286C44.966,182.072 41.871,183.699 38.598,183.504C35.335,183.301 32.443,181.32 31.081,178.348C25.863,166.923 22.317,154.604 20.558,141.745C19.903,137.253 19.497,132.54 19.337,127.428C18.373,97.254 27.146,68.514 44.045,46.502C61.352,23.96 85.07,11.093 110.822,10.27C123.45,9.864 135.725,12.366 147.319,17.716C147.964,17.672 151.245,17.548 152.386,17.602C174.644,17.797 195.683,28.117 211.636,46.653C227.298,64.844 236.372,89.11 237.203,114.968C238.043,141.321 230.234,166.471 215.2,185.777C213.493,187.97 210.902,189.191 208.223,189.191C207.347,189.191 206.463,189.058 205.605,188.792C202.085,187.705 199.619,184.548 199.398,180.878C199.265,178.737 199.035,176.615 198.752,174.51C191.686,196.23 179.182,213.943 163.564,224.926C165.715,239.993 171.821,249.956 179.041,256.543ZM212.584,155.232C217.562,143.108 219.977,129.542 219.526,115.534C218.827,93.7 211.266,73.333 198.231,58.193C185.62,43.531 169.225,35.395 152.086,35.28C151.953,35.28 146.161,35.554 145.993,35.554C144.551,35.607 143.022,35.289 141.713,34.635C126.556,27.056 112.07,27.923 111.39,27.949C91.032,28.595 72.098,39.012 58.081,57.265C43.658,76.049 36.185,100.766 37.016,126.872C37.157,131.311 37.502,135.37 38.069,139.27C38.873,145.098 40.076,150.775 41.686,156.267C44.445,153.172 52.209,146.309 52.492,146.098C59.646,140.323 67.561,135.751 76.077,132.541C84.673,129.34 93.72,127.571 102.988,127.271C104.881,127.209 106.791,127.218 108.684,127.28C122.4,127.748 134.754,121.213 140.909,110.212C142.996,106.471 144.818,102.519 146.321,98.46C147.161,96.195 148.886,94.374 151.096,93.419C153.307,92.455 155.819,92.446 158.047,93.384C179.386,102.351 196.861,119.472 207.243,141.572C209.356,146.008 211.134,150.562 212.584,155.232ZM187.035,143.231C187.079,142.709 187.168,142.196 187.3,141.702C180.208,129.798 170.507,120.133 159.081,113.589C158.214,115.366 157.304,117.126 156.348,118.842C147.257,135.096 129.659,144.992 110.089,144.992C109.417,144.992 105.057,144.903 103.553,144.947C96.204,145.186 89.05,146.583 82.284,149.095C77.031,151.085 72.044,153.738 67.392,157.001C74.83,193.506 98.981,219.488 126.245,219.488C140.898,219.488 155.118,211.971 166.288,198.335C177.944,184.097 185.311,164.526 187.035,143.231ZM96.517,256.246C90.42,265.807 162.335,265.973 156.251,256.545C151.805,249.654 148.598,241.891 146.948,233.575C140.342,235.919 133.4,237.175 126.246,237.175C119.224,237.175 112.3,235.954 105.623,233.594C103.997,241.783 100.86,249.434 96.517,256.246Z" style="fill-rule:nonzero;"/>
    <circle cx="101.641" cy="163.918" r="13.708"/>
    <circle cx="155.935" cy="163.918" r="13.708"/>
  </symbol>
  <symbol id="alien" viewBox="0 0 256 256">
    <path d="M204.791,40.359C225.466,61.035 236.85,88.529 236.85,117.766C236.85,149.986 220.053,175.6 205.51,194.354C185.553,220.078 161.624,247.847 127.384,247.847C93.143,247.847 69.214,220.078 49.265,194.354C34.715,175.6 17.918,149.986 17.918,117.766C17.918,88.529 29.301,61.035 49.976,40.36C70.666,19.684 98.154,8.292 127.384,8.292C156.621,8.292 184.108,19.684 204.791,40.359ZM191.879,183.784C205.646,166.023 219.598,144.234 219.598,117.766C219.598,93.137 210.008,69.977 192.591,52.552L192.589,52.551C175.165,35.142 152.013,25.552 127.384,25.552C102.754,25.552 79.602,35.143 62.177,52.559C44.76,69.976 35.169,93.137 35.169,117.766C35.169,144.234 49.122,166.022 62.896,183.792C73.356,197.276 85.023,211.269 98.067,220.33C107.154,226.643 116.917,230.587 127.384,230.587C137.851,230.587 147.614,226.643 156.701,220.33C169.745,211.268 181.415,197.272 191.879,183.784Z" style="fill-rule:nonzero;"/>
            <path d="M141.627,179.497C144.914,179.497 147.57,176.841 147.57,173.561C147.57,170.289 144.914,167.633 141.627,167.633C138.348,167.633 135.706,170.289 135.706,173.561C135.706,176.841 138.348,179.497 141.627,179.497Z" style="fill-rule:nonzero;"/>
            <path d="M107.197,173.561C107.197,176.841 109.853,179.497 113.14,179.497C116.42,179.497 119.069,176.841 119.069,173.561C119.069,170.289 116.42,167.633 113.14,167.633C109.853,167.633 107.197,170.289 107.197,173.561Z" style="fill-rule:nonzero;"/>
            <path d="M144.516,191.061L110.251,191.061C107.355,191.061 105.005,193.403 105.005,196.292C105.005,199.181 107.355,201.538 110.251,201.538L144.516,201.538C147.413,201.538 149.762,199.181 149.762,196.292C149.762,193.403 147.413,191.061 144.516,191.061Z" style="fill-rule:nonzero;"/>
            <path d="M111.024,148.092C114.326,147.784 116.93,145.225 115.902,139.747C113.23,125.773 106.642,114.141 94.702,106.787C85.006,100.799 70.613,97.767 58.876,100.656C55.214,101.549 53.901,104.693 54.951,109.916C56.767,119.034 60.895,131.927 70.38,139.221C80.827,147.251 96.503,149.457 111.024,148.092Z" style="fill-rule:nonzero;"/>
            <path d="M195.884,100.656C184.154,97.767 169.768,100.799 160.058,106.787C148.133,114.142 141.537,125.773 138.873,139.747C137.83,145.225 140.442,147.784 143.744,148.092C158.264,149.457 173.933,147.251 184.387,139.221C193.873,131.927 198,119.035 199.816,109.916C200.867,104.693 199.561,101.549 195.884,100.656Z" style="fill-rule:nonzero;"/>
  </symbol>
  <symbol id="robot" viewBox="0 0 256 256">
    <path d="M119.59,36.072L119.59,2.055L136.41,2.055L136.41,36.072C183.56,40.321 220.51,79.948 220.51,128.205L220.51,229.125C220.51,243.06 209.215,254.355 195.28,254.355L60.72,254.355C46.786,254.355 35.49,243.06 35.49,229.125L35.49,128.205C35.49,79.948 72.439,40.321 119.59,36.072ZM128,52.515C86.198,52.515 52.31,86.403 52.31,128.205L52.31,229.125C52.31,233.77 56.075,237.535 60.72,237.535L195.28,237.535C199.925,237.535 203.69,233.77 203.69,229.125L203.69,128.205C203.69,86.403 169.802,52.515 128,52.515ZM94.36,170.255C80.426,170.255 69.13,158.959 69.13,145.025C69.13,131.091 80.426,119.795 94.36,119.795C108.294,119.795 119.59,131.091 119.59,145.025C119.59,158.959 108.294,170.255 94.36,170.255ZM94.36,153.435C99.005,153.435 102.77,149.67 102.77,145.025C102.77,140.38 99.005,136.615 94.36,136.615C89.715,136.615 85.95,140.38 85.95,145.025C85.95,149.67 89.715,153.435 94.36,153.435ZM161.64,170.255C147.706,170.255 136.41,158.959 136.41,145.025C136.41,131.091 147.706,119.795 161.64,119.795C175.575,119.795 186.87,131.091 186.87,145.025C186.87,158.959 175.575,170.255 161.64,170.255ZM161.64,153.435C166.285,153.435 170.05,149.67 170.05,145.025C170.05,140.38 166.285,136.615 161.64,136.615C156.995,136.615 153.23,140.38 153.23,145.025C153.23,149.67 156.995,153.435 161.64,153.435ZM69.13,203.895L69.13,187.075L186.87,187.075L186.87,203.895L69.13,203.895ZM1.85,136.615L18.67,136.615L18.67,203.895L1.85,203.895L1.85,136.615ZM237.33,136.615L254.15,136.615L254.15,203.895L237.33,203.895L237.33,136.615Z"/>
  </symbol>
</svg>