<svg version="1.1" xmlns="http://www.w3.org/2000/svg" xmlns:xlink="http://www.w3.org/1999/xlink" xml:space="preserve" >
    <symbol id="up" viewBox="0 0 150 150">
        <path d="M75.334,9.221L144.072,140.779L6.596,140.779L75.334,9.221ZM75.334,13.54C75.334,13.54 19.877,119.679 9.898,138.779C9.898,138.779 140.771,138.779 140.771,138.779L75.334,13.54Z"/>
    </symbol>
    <symbol id="left" viewBox="0 0 150 150">
        <path d="M6.113,75L145.307,2.273L145.307,147.727L6.113,75ZM10.431,75L143.307,144.426L143.307,5.574L10.431,75Z"/>
    </symbol>
    <symbol id="right" viewBox="0 0 150 150">
        <path d="M145.199,75L6.005,147.727L6.005,2.273L145.199,75ZM140.881,75L8.005,5.574L8.005,144.426L140.881,75Z"/>
    </symbol>
    <symbol id="down" viewBox="0 0 150 150">
        <path d="M75,144.597L2.273,5.403L147.727,5.403L75,144.597ZM75,140.278L144.426,7.403L5.574,7.403L75,140.278Z"/>
    </symbol>
</svg>
